<svg xmlns="http://www.w3.org/2000/svg" viewBox="0 0 132 40">
<path fill="#fff" fill-rule="evenodd" d="M120.856 34.45c-1.246 0-2.253-.254-3.368-.846a.22.22 0 0 1-.099-.291l1.069-2.301a.234.234 0 0 1 .135-.121.25.25 0 0 1 .184.017c.598.322 1.184.484 1.74.484.686 0 1.19-.221 1.701-1.335l-4.509-10.602h-2.944v10.603a.23.23 0 0 1-.231.228h-3.153a.229.229 0 0 1-.23-.228V19.455h-1.514a.229.229 0 0 1-.231-.227v-2.669a.23.23 0 0 1 .231-.227h1.514v-.655c0-3.04 1.54-4.648 4.452-4.648 1.196 0 1.996.188 2.621.37a.226.226 0 0 1 .162.216v2.605a.232.232 0 0 1-.094.187.24.24 0 0 1-.209.029c-.591-.193-1.119-.322-1.776-.322-1.103 0-1.594.561-1.594 1.818v.428h5.387c.095 0 .182.057.214.145l3.684 9.422 3.362-9.415a.228.228 0 0 1 .218-.152h3.283c.077 0 .146.036.19.097a.228.228 0 0 1 .024.21l-5.47 13.859c-1.135 2.86-2.422 3.924-4.749 3.924zm-14.711-19.812c-1.248 0-2.263-.992-2.263-2.217 0-1.226 1.015-2.217 2.263-2.217s2.261.991 2.261 2.217c0 1.225-1.013 2.217-2.261 2.217zm-6.989 4.817v6.391c0 1.008.452 1.458 1.463 1.458.656 0 1.243-.138 1.85-.437a.234.234 0 0 1 .225.01.225.225 0 0 1 .109.193v2.531a.223.223 0 0 1-.117.194c-.884.493-1.822.722-2.953.722-2.781 0-4.191-1.409-4.191-4.186v-6.876h-1.517a.228.228 0 0 1-.229-.227v-2.655c0-.126.103-.227.229-.227h1.517v-3.48c0-.124.103-.225.231-.225h3.152c.128 0 .231.101.231.225v3.48h3.469c.127 0 .23.101.23.227v2.655a.228.228 0 0 1-.23.227h-3.469zM85.947 30.593c-4.22 0-7.526-3.173-7.526-7.225 0-4.097 3.329-7.305 7.578-7.305 4.235 0 7.552 3.186 7.552 7.253 0 4.081-3.339 7.277-7.604 7.277zm0-11.368c-2.268 0-3.912 1.72-3.912 4.091 0 2.36 1.704 4.142 3.964 4.142 2.282 0 3.938-1.72 3.938-4.09 0-2.363-1.715-4.143-3.99-4.143zm-15.15 11.343c-1.775 0-3.232-.647-4.433-1.969v5.547a.227.227 0 0 1-.231.225h-3.152a.227.227 0 0 1-.231-.225V16.573c0-.126.103-.227.231-.227h3.152c.128 0 .231.101.231.227v1.58c1.201-1.404 2.658-2.09 4.433-2.09 3.3 0 6.641 2.49 6.641 7.253 0 4.761-3.341 7.252-6.641 7.252zM70.068 19.2c-2.157 0-3.783 1.768-3.783 4.116 0 2.347 1.626 4.116 3.783 4.116 2.18 0 3.703-1.693 3.703-4.116 0-2.386-1.558-4.116-3.703-4.116zm-14.58.268c4.292 1.022 6.041 2.612 6.041 5.482 0 3.396-2.649 5.592-6.745 5.592a11.616 11.616 0 0 1-7.761-2.92.22.22 0 0 1-.024-.313l1.928-2.249a.231.231 0 0 1 .158-.08.245.245 0 0 1 .17.053c1.876 1.593 3.552 2.271 5.607 2.271 1.851 0 3-.783 3-2.047 0-1.14-.568-1.776-3.939-2.538-3.957-.939-6.248-2.154-6.248-5.587 0-3.201 2.656-5.437 6.457-5.437 2.585 0 4.799.751 6.762 2.297.096.075.115.21.045.307l-1.719 2.377a.235.235 0 0 1-.153.093.235.235 0 0 1-.174-.043c-1.65-1.206-3.225-1.792-4.813-1.792-1.638 0-2.739.771-2.739 1.919 0 1.213.626 1.792 4.147 2.615zm-14.746 1.863c-.015.221-.029.441-.051.659-.013.13-.032.258-.047.386-.024.197-.047.393-.076.587-.021.136-.046.271-.07.406-.032.185-.063.37-.1.553-.028.138-.06.274-.091.411-.04.178-.08.355-.125.531-.035.138-.074.274-.112.411-.048.172-.096.344-.149.515a19.186 19.186 0 0 1-.304.907 20.859 20.859 0 0 1-.515 1.278 26.182 26.182 0 0 1-.404.857c-.08.159-.163.315-.246.471-.066.122-.131.243-.199.364a21.5 21.5 0 0 1-.271.463c-.07.116-.139.232-.211.347-.097.155-.198.307-.3.459-.073.109-.144.219-.219.326-.108.156-.221.308-.334.461-.074.1-.145.2-.221.299-.124.162-.253.319-.383.477-.069.085-.136.171-.206.255-.159.188-.324.371-.489.554-.046.049-.088.101-.134.15-.215.231-.434.457-.66.678-.04.04-.084.078-.125.118a19.93 19.93 0 0 1-.562.525c-.081.073-.165.141-.246.212-.156.135-.311.27-.471.4-.097.079-.196.154-.294.231-.15.117-.299.234-.452.348-.107.079-.216.154-.324.231l-.339.237c.032-.023.067-.042.1-.064-.038.026-.077.048-.115.074-.032.022-.063.045-.095.066-.115.077-.231.151-.347.225a19.368 19.368 0 0 1-.599.371l-.07.04c.015-.008.031-.016.045-.025l-.209.121c-.148.086-.296.17-.446.252l-.197.104c-.115.061-.232.121-.349.18l-.061.03c-.09.045-.178.091-.269.135-.122.058-.244.116-.368.173l-.1.044c-.11.05-.22.099-.331.147l-.048.021c-.097.042-.196.082-.294.123a15.8 15.8 0 0 1-.516.203c-.117.044-.233.087-.35.129l-.151.055c-.129.045-.26.088-.391.13-.107.035-.214.07-.322.103l-.043.013c-.116.036-.232.07-.349.103l-.334.094c-.143.038-.285.077-.429.113l-.073.016-.18.044c.032-.007.062-.017.094-.024l-.208.047c.037-.009.076-.014.114-.023-.088.021-.177.037-.265.057l-.013.003c-.143.031-.285.064-.429.092-.149.029-.299.054-.449.079-.088.015-.175.034-.263.048.041-.007.081-.017.122-.024l-.217.036c.032-.005.064-.007.095-.012l-.147.021-.118.02c-.199.029-.4.051-.601.075-.13.015-.26.034-.392.046l-.03.004h-.019c-.054.005-.11.007-.164.012-.124.011-.248.018-.372.027-.421.03-.845.049-1.273.053-.038 0-.074.005-.111.005h-.153c-.036 0-.07-.004-.106-.005a21.083 21.083 0 0 1-1.312-.055c-.119-.009-.239-.016-.358-.026-.048-.005-.097-.006-.146-.011h-.018a19.603 19.603 0 0 1-1.065-.138c.051.008.103.012.154.019-.127-.019-.257-.03-.383-.05l-.18-.032c.048.008.095.021.143.029-.086-.014-.17-.034-.256-.049l-.03-.005c-.053-.009-.104-.022-.156-.031a21.03 21.03 0 0 1-1.011-.206l.096.019-.158-.036.062.017c-.145-.034-.286-.077-.43-.115l.023.006c-.015-.003-.029-.008-.044-.012l.021.006c-.291-.075-.582-.15-.868-.237l-.036-.01c-.039-.012-.077-.026-.116-.039l-.018-.006c-.161-.051-.319-.11-.479-.165l.208.071c-.11-.037-.219-.076-.328-.115l.12.044c-.245-.084-.49-.168-.73-.261l-.121-.047c-.017-.007-.033-.015-.05-.021a21.151 21.151 0 0 1-.491-.205c.107.046.215.089.322.133-.159-.065-.317-.134-.474-.202.051.022.101.047.152.069-.168-.072-.338-.142-.504-.219l-.036-.015c-.022-.01-.045-.019-.067-.03-.079-.036-.154-.08-.232-.117-.16-.078-.32-.154-.478-.235.135.069.273.133.41.2a21.302 21.302 0 0 1-.584-.296c.059.031.115.065.174.096-.133-.069-.265-.137-.396-.208l-.048-.025c-.049-.026-.097-.055-.145-.082-.063-.034-.122-.073-.184-.109l-.053-.03.027.015c-.217-.124-.431-.25-.642-.381.063.039.123.083.187.122-.103-.062-.203-.128-.304-.191l-.009-.006-.154-.097c-.078-.05-.152-.105-.229-.156-.165-.109-.334-.212-.496-.326.121.085.25.16.373.242-.216-.144-.434-.285-.644-.438l.044.033c-.015-.01-.029-.022-.044-.033-.196-.144-.387-.294-.578-.444l-.009-.007-.002-.001c-.084-.067-.17-.131-.254-.199l-.001-.001-.033-.028c-.232-.19-.462-.384-.685-.584l-.018-.015-.014-.013c-.082-.073-.158-.15-.238-.225-.158-.146-.316-.292-.469-.443l-.019-.018-.037-.035.037.035c-.063-.062-.123-.127-.185-.19.05.051.097.105.148.155-.051-.051-.099-.105-.15-.157l-.082-.086c-.139-.144-.279-.286-.414-.434l-.002-.003c-.077-.084-.152-.17-.227-.255l-.058-.067a21.99 21.99 0 0 1-.596-.71c-.02-.024-.039-.05-.058-.075a19.844 19.844 0 0 1-.548-.72c-.022-.031-.042-.063-.064-.093a22.618 22.618 0 0 1-.331-.479c-.055-.082-.112-.164-.166-.248-.025-.038-.047-.077-.071-.115a18.36 18.36 0 0 1-.298-.482c-.012-.022-.026-.043-.039-.064-.037-.061-.075-.121-.111-.183-.027-.046-.051-.094-.077-.141a20.391 20.391 0 0 1-.274-.502c-.043-.079-.088-.156-.129-.236-.026-.05-.049-.101-.074-.151a16.057 16.057 0 0 1-.256-.536c-.033-.069-.068-.138-.1-.208l-.052-.121c-.093-.208-.18-.419-.265-.631l-.07-.169-.029-.079a18.694 18.694 0 0 1-.279-.773l-.034-.096-.01-.031a19.533 19.533 0 0 1-.606-2.267l-.008-.04c-.016-.079-.027-.159-.042-.237a19.434 19.434 0 0 1-.12-.682l-.015-.088c-.016-.112-.026-.226-.04-.339a17.848 17.848 0 0 1-.073-.616c-.002-.02-.006-.04-.007-.061-.003-.027-.002-.055-.004-.083a19.6 19.6 0 0 1-.085-1.773c0-.257.01-.513.02-.768-.004.116-.014.231-.016.348.002-.117.012-.232.016-.348.006-.145.012-.29.02-.435.005-.075.005-.151.011-.226-.006.075-.006.151-.011.226.012-.193.028-.384.045-.575-.011.116-.026.232-.034.349.008-.118.024-.234.034-.352.013-.144.026-.287.042-.43.022-.19.047-.38.074-.569.02-.142.04-.283.063-.423V16.8c.031-.187.066-.373.102-.558v-.002c.027-.139.054-.278.084-.416v-.001a19.77 19.77 0 0 1 .13-.55c.033-.136.067-.273.104-.408v-.002c.049-.18.101-.357.155-.534l.001-.004c.04-.134.08-.269.123-.401l.001-.003c.057-.175.118-.348.18-.521l.002-.005c.047-.131.093-.262.143-.392L1.294 13c.065-.171.134-.339.203-.507l.003-.007c.053-.128.106-.257.161-.384l.002-.003a21.895 21.895 0 0 1 .231-.5c.059-.125.117-.251.179-.374l.002-.004c.08-.161.164-.319.249-.477l.005-.01c.065-.121.129-.244.197-.364l.002-.004c.087-.155.179-.308.27-.461l.007-.011c.071-.118.141-.237.214-.354l.003-.004c.094-.15.192-.297.29-.444l.008-.013c.077-.114.152-.229.231-.342l.003-.005c.1-.144.205-.285.309-.427l.011-.014c.082-.111.162-.222.246-.331l.004-.005c.106-.138.217-.273.328-.409l.012-.015c.087-.107.173-.214.262-.319a.018.018 0 0 1 .004-.005c.112-.132.229-.262.345-.391L5.09 6.8c.092-.103.182-.206.276-.307l.005-.004c.118-.127.241-.25.362-.373l.017-.017c.097-.098.192-.197.291-.293a.018.018 0 0 0 .004-.005l.036-.036-.034.035c.107-.104.218-.204.327-.306-.09.084-.183.165-.272.25.105-.101.215-.198.322-.297l.019-.017c.102-.094.202-.189.305-.28l.005-.004.053-.049-.053.049c.111-.099.227-.193.341-.29-.096.081-.194.158-.288.241.112-.098.228-.191.341-.286a.425.425 0 0 1 .022-.018c.105-.088.209-.178.316-.264l.005-.004.052-.043-.051.042c.116-.093.235-.182.353-.272-.1.077-.203.151-.302.23.117-.094.239-.183.359-.274l.023-.018c.11-.083.217-.167.328-.248l.004-.003.051-.038-.048.036c.121-.088.244-.171.366-.256-.105.074-.214.144-.318.22.123-.09.251-.174.377-.26l.026-.018c.112-.078.223-.157.337-.232l.004-.003.049-.033-.044.03c.125-.082.254-.159.38-.239-.111.07-.226.137-.336.209.13-.085.263-.164.395-.246l.029-.017c.115-.072.229-.146.346-.215l.004-.002a.739.739 0 0 1 .047-.029l-.04.025c.13-.077.263-.149.395-.223-.118.066-.239.129-.355.198.135-.08.275-.154.412-.23l.032-.018c.118-.065.234-.133.353-.197a.008.008 0 0 0 .004-.002l.045-.024-.036.02c.136-.072.276-.139.413-.208-.125.063-.253.122-.377.188.142-.075.287-.143.43-.215a.378.378 0 0 0 .035-.017c.12-.059.238-.121.36-.178l.003-.002.043-.021-.031.016c.143-.067.289-.129.434-.193-.134.06-.27.115-.403.177.148-.069.299-.131.449-.197l.038-.017c.121-.053.241-.109.364-.159l.003-.002a.684.684 0 0 0 .04-.017l-.026.012c.152-.063.307-.119.461-.178-.145.055-.291.108-.435.166.154-.063.312-.119.468-.179l.043-.016c.122-.047.242-.096.366-.141h.002a.426.426 0 0 1 .038-.014l-.022.008c.165-.059.334-.111.501-.166-.16.053-.321.102-.479.158.161-.057.325-.107.487-.161l.05-.016c.122-.04.241-.083.363-.12h.002l.035-.011-.017.006c.174-.053.351-.099.526-.147l-.027.008.07-.02.061-.017c.104-.028.206-.059.311-.086h.001l.031-.008-.01.003c.18-.045.363-.083.545-.123l-.064.014c.092-.021.183-.043.276-.062l.088-.02c.038-.008.075-.018.112-.025l.001-.001.027-.004-.004.001c.188-.038.379-.068.57-.1l-.102.017c.17-.029.338-.063.508-.088l.001-.001.017-.002h.004c.152-.023.307-.038.46-.058-.103.013-.208.025-.311.039.152-.021.306-.039.459-.057l-.148.018c.177-.022.353-.048.532-.066h.001l.021-.002h.001c.151-.015.304-.023.456-.034l-.149.011c.126-.01.251-.02.377-.028l-.228.017c.183-.014.365-.032.549-.041h.001l.023-.001c.152-.008.306-.008.458-.012l-.085.002c.223-.007.445-.016.67-.016 11.264 0 20.394 8.951 20.394 19.995 0 .335-.01.668-.026.999-.006.11-.017.219-.024.328zM8.566 26.4c.155.67.838 1.09 1.522.936 7.098-1.59 13.126-.942 17.914 1.928.6.358 1.383.175 1.749-.416a1.231 1.231 0 0 0-.422-1.712c-5.376-3.222-12.039-3.971-19.808-2.229a1.242 1.242 0 0 0-.955 1.493zm-.814-5.851c.256.823 1.144 1.287 1.986 1.038 6.484-1.929 14.841-.973 20.321 2.331.747.449 1.727.22 2.187-.512a1.543 1.543 0 0 0-.522-2.145c-6.296-3.791-15.503-4.86-22.911-2.656a1.557 1.557 0 0 0-1.061 1.944zm26.656-6.031c-7.568-4.405-19.543-4.819-26.747-2.674a1.864 1.864 0 0 0-1.271 2.332c.305.989 1.37 1.546 2.379 1.246 6.275-1.867 17.118-1.514 23.693 2.313a1.927 1.927 0 0 0 2.613-.655 1.848 1.848 0 0 0-.667-2.562zM20.344.009h.054c-.196 0-.39.009-.585.014.177-.005.353-.014.531-.014zm87.361 16.337c.128 0 .231.101.231.227v13.485a.23.23 0 0 1-.231.228h-3.153a.23.23 0 0 1-.231-.228V16.573c0-.126.104-.227.231-.227h3.153zm22.292 9.66c1.125 0 2 .898 2 1.988a2.006 2.006 0 0 1-2.01 2.001 1.987 1.987 0 0 1-2.001-1.99c0-1.091.887-1.999 2.011-1.999zm-.01 3.789a1.784 1.784 0 0 0 1.801-1.801 1.77 1.77 0 0 0-1.791-1.79c-1.024 0-1.8.809-1.8 1.801 0 .992.77 1.79 1.79 1.79zm.941-2.23c0 .341-.199.551-.488.634l.566.787h-.477l-.509-.723h-.438v.723h-.4v-2.087h.937c.488 0 .809.248.809.666zm-1.346-.309v.661h.521c.26 0 .415-.126.415-.331 0-.214-.155-.33-.415-.33h-.521z"/>
</svg>